<svg xmlns="http://www.w3.org/2000/svg" viewBox="0 0 64 64" fill="none">
  <!-- Left ear -->
  <path d="M8 18 Q6 8 14 14 Q18 18 18 24 Q17 30 12 28 Q8 26 8 18Z" fill="#c8963e" />
  <path d="M10 18 Q9 12 14 16 Q17 19 16 23 Q15 27 12 26 Q10 24 10 18Z" fill="#d4a54a" />
  <!-- Right ear -->
  <path d="M56 18 Q58 8 50 14 Q46 18 46 24 Q47 30 52 28 Q56 26 56 18Z" fill="#c8963e" />
  <path d="M54 18 Q55 12 50 16 Q47 19 48 23 Q49 27 52 26 Q54 24 54 18Z" fill="#d4a54a" />

  <!-- Head -->
  <ellipse cx="32" cy="34" rx="18" ry="16" fill="#d4a54a" />

  <!-- Brow ridge -->
  <path d="M16 30 Q24 26 32 28 Q40 26 48 30" stroke="#b8862e" stroke-width="1.5" fill="none" stroke-linecap="round" />

  <!-- Forehead highlight -->
  <ellipse cx="32" cy="26" rx="8" ry="5" fill="#e0b860" opacity="0.5" />

  <!-- Eyes -->
  <circle cx="22" cy="30" r="2.5" fill="#fff" />
  <circle cx="42" cy="30" r="2.5" fill="#fff" />
  <circle cx="22.5" cy="30" r="1.3" fill="#3a2a0a" />
  <circle cx="42.5" cy="30" r="1.3" fill="#3a2a0a" />
  <circle cx="21.5" cy="29" r="0.5" fill="#fff" />
  <circle cx="41.5" cy="29" r="0.5" fill="#fff" />

  <!-- Binoculars -->
  <rect x="13" y="19" width="14" height="11" rx="4" fill="#2a2a2a" />
  <rect x="14" y="20" width="12" height="9" rx="3" fill="#3a3a3a" />
  <ellipse cx="20" cy="24.5" rx="4.5" ry="4" fill="#1a1a1a" />
  <ellipse cx="20" cy="24.5" rx="3.5" ry="3" fill="#2a5a7a" opacity="0.7" />
  <ellipse cx="20" cy="24.5" rx="2" ry="1.8" fill="#3a6a8a" opacity="0.5" />
  <ellipse cx="18" cy="23" rx="1.2" ry="0.8" fill="#fff" opacity="0.2" />

  <rect x="37" y="19" width="14" height="11" rx="4" fill="#2a2a2a" />
  <rect x="38" y="20" width="12" height="9" rx="3" fill="#3a3a3a" />
  <ellipse cx="44" cy="24.5" rx="4.5" ry="4" fill="#1a1a1a" />
  <ellipse cx="44" cy="24.5" rx="3.5" ry="3" fill="#2a5a7a" opacity="0.7" />
  <ellipse cx="44" cy="24.5" rx="2" ry="1.8" fill="#3a6a8a" opacity="0.5" />
  <ellipse cx="42" cy="23" rx="1.2" ry="0.8" fill="#fff" opacity="0.2" />

  <!-- Bridge + knob -->
  <rect x="27" y="22" width="10" height="5" rx="2" fill="#333" />
  <circle cx="32" cy="19" r="2" fill="#333" />

  <!-- Snout -->
  <ellipse cx="32" cy="44" rx="12" ry="7" fill="#e8c870" />

  <!-- Nose -->
  <ellipse cx="32" cy="41" rx="5" ry="3.5" fill="#2a1a08" />
  <ellipse cx="30" cy="39.5" rx="1.8" ry="1.2" fill="#4a3a18" opacity="0.4" />

  <!-- Mouth -->
  <path d="M26 46 Q32 50 38 46" stroke="#8a6a2a" stroke-width="0.7" fill="none" stroke-linecap="round" />
</svg>
